<?xml version="1.0" encoding="utf-8"?>
<!-- Generator: Adobe Illustrator 17.1.0, SVG Export Plug-In . SVG Version: 6.00 Build 0)  -->
<!DOCTYPE svg PUBLIC "-//W3C//DTD SVG 1.1//EN" "http://www.w3.org/Graphics/SVG/1.1/DTD/svg11.dtd">
<svg version="1.1" id="Calque_1" xmlns="http://www.w3.org/2000/svg" xmlns:xlink="http://www.w3.org/1999/xlink" x="0px" y="0px"
	 viewBox="0 0 136.2 50" enable-background="new 0 0 136.2 50" xml:space="preserve">
<g>
	<path fill="#FFFFFF" d="M11.6,0L0,0l0,50h11.6V0z M1.6,12.1V1.6H10v10.5H1.6z M1.6,24.2V13.7H10v10.5H1.6z M1.6,25.8H10v10.5H1.6
		V25.8z M1.6,48.4V37.9H10v10.5H1.6z"/>
	<g>
		<g>
			<path fill="#FFFFFF" d="M27.7,14.4c0,1.2-1,2.2-2.2,2.2h-3.3v5.8h-1.6V7.2h4.9c1.2,0,2.2,1,2.2,2.2V14.4z M26,9.4
				c0-0.3-0.2-0.5-0.5-0.5h-3.3V15h3.3c0.3,0,0.5-0.2,0.5-0.5V9.4z"/>
			<path fill="#FFFFFF" d="M37.2,22.4h-1.6v-7.2h-3.8v7.2h-1.6V7.2h1.6v6.3h3.8V7.2h1.6V22.4z"/>
			<path fill="#FFFFFF" d="M47.3,20.2c0,1.2-1,2.2-2.2,2.2h-2.7c-1.2,0-2.2-1-2.2-2.2V9.4c0-1.2,1-2.2,2.2-2.2h2.7
				c1.2,0,2.2,1,2.2,2.2V20.2z M45.7,9.4c0-0.3-0.2-0.5-0.5-0.5h-2.7c-0.3,0-0.5,0.2-0.5,0.5v10.8c0,0.3,0.2,0.5,0.5,0.5h2.7
				c0.3,0,0.5-0.2,0.5-0.5V9.4z"/>
			<path fill="#FFFFFF" d="M56.8,8.9h-2.7v13.6h-1.6V8.9h-2.7V7.2h7V8.9z"/>
			<path fill="#FFFFFF" d="M66.4,20.2c0,1.2-1,2.2-2.2,2.2h-2.7c-1.2,0-2.2-1-2.2-2.2V9.4c0-1.2,1-2.2,2.2-2.2h2.7
				c1.2,0,2.2,1,2.2,2.2V20.2z M64.8,9.4c0-0.3-0.2-0.5-0.5-0.5h-2.7c-0.3,0-0.5,0.2-0.5,0.5v10.8c0,0.3,0.2,0.5,0.5,0.5h2.7
				c0.3,0,0.5-0.2,0.5-0.5V9.4z"/>
			<path fill="#FFFFFF" d="M74.9,20h-4.2l-0.5,2.5h-1.6l3.3-15.2h2l3.3,15.2h-1.6L74.9,20z M71.1,18.3h3.5l-1.8-8.6L71.1,18.3z"/>
			<path fill="#FFFFFF" d="M86.3,20.2c0,1.2-1,2.2-2.2,2.2h-2.7c-1.2,0-2.2-1-2.2-2.2v-13h1.6v13c0,0.3,0.2,0.5,0.5,0.5h2.7
				c0.3,0,0.5-0.2,0.5-0.5v-13h1.6V20.2z"/>
			<path fill="#FFFFFF" d="M95.9,8.9h-2.7v13.6h-1.6V8.9h-2.7V7.2h7V8.9z"/>
			<path fill="#FFFFFF" d="M105.4,20.2c0,1.2-1,2.2-2.2,2.2h-2.7c-1.2,0-2.2-1-2.2-2.2V9.4c0-1.2,1-2.2,2.2-2.2h2.7
				c1.2,0,2.2,1,2.2,2.2V20.2z M103.8,9.4c0-0.3-0.2-0.5-0.5-0.5h-2.7c-0.3,0-0.5,0.2-0.5,0.5v10.8c0,0.3,0.2,0.5,0.5,0.5h2.7
				c0.3,0,0.5-0.2,0.5-0.5V9.4z"/>
			<path fill="#FFFFFF" d="M118.1,22.4h-1.6V10.9l-2.9,10.5h-0.7l-2.8-10.5v11.5h-1.6V7.2h2.2l2.6,9.6l2.6-9.6h2.2V22.4z"/>
			<path fill="#FFFFFF" d="M126.6,20h-4.2l-0.5,2.5h-1.6l3.3-15.2h2l3.3,15.2h-1.6L126.6,20z M122.8,18.3h3.5l-1.8-8.6L122.8,18.3z"
				/>
			<path fill="#FFFFFF" d="M136.2,8.9h-2.7v13.6h-1.6V8.9h-2.7V7.2h7V8.9z"/>
		</g>
		<g>
			<path fill="#FFFFFF" d="M27.7,40.8c0,1.2-1,2.2-2.2,2.2h-2.7c-1.2,0-2.2-1-2.2-2.2V29.9c0-1.2,1-2.2,2.2-2.2h2.7
				c1.2,0,2.2,1,2.2,2.2v1.9H26v-1.9c0-0.3-0.2-0.5-0.5-0.5h-2.7c-0.3,0-0.5,0.2-0.5,0.5v10.8c0,0.3,0.2,0.5,0.5,0.5h2.7
				c0.3,0,0.5-0.2,0.5-0.5v-1.9h1.6V40.8z"/>
			<path fill="#FFFFFF" d="M32.3,42.9h-1.6V27.8h1.6V42.9z"/>
			<path fill="#FFFFFF" d="M40.8,36.5l1.5,6.4h-1.7l-1.4-6.4H37v6.4h-1.6V27.8h4.9c1.2,0,2.2,1,2.2,2.2v4.5
				C42.4,35.4,41.8,36.2,40.8,36.5z M40.8,29.9c0-0.3-0.2-0.5-0.5-0.5H37V35h3.3c0.3,0,0.5-0.2,0.5-0.5V29.9z"/>
			<path fill="#FFFFFF" d="M52.5,40.8c0,1.2-1,2.2-2.2,2.2h-2.7c-1.2,0-2.2-1-2.2-2.2V29.9c0-1.2,1-2.2,2.2-2.2h2.7
				c1.2,0,2.2,1,2.2,2.2v1.9h-1.6v-1.9c0-0.3-0.2-0.5-0.5-0.5h-2.7c-0.3,0-0.5,0.2-0.5,0.5v10.8c0,0.3,0.2,0.5,0.5,0.5h2.7
				c0.3,0,0.5-0.2,0.5-0.5v-1.9h1.6V40.8z"/>
			<path fill="#FFFFFF" d="M62.6,40.8c0,1.2-1,2.2-2.2,2.2h-2.7c-1.2,0-2.2-1-2.2-2.2v-13h1.6v13c0,0.3,0.2,0.5,0.5,0.5h2.7
				c0.3,0,0.5-0.2,0.5-0.5v-13h1.6V40.8z"/>
			<path fill="#FFFFFF" d="M71,38.6c0-0.3-0.1-0.5-0.3-0.7l-4.4-4.4c-0.5-0.4-0.7-1.1-0.7-1.9v-1.7c0-1.2,1-2.2,2.2-2.2h2.7
				c1.2,0,2.2,1,2.2,2.2v2.2H71v-2.2c0-0.3-0.2-0.5-0.5-0.5h-2.7c-0.3,0-0.5,0.2-0.5,0.5v1.7c0,0.3,0.1,0.5,0.3,0.7l4.4,4.4
				c0.5,0.4,0.7,1.1,0.7,1.9v2.2c0,1.2-1,2.2-2.2,2.2h-2.7c-1.2,0-2.2-1-2.2-2.2v-2.2h1.6v2.2c0,0.3,0.2,0.5,0.5,0.5h2.7
				c0.3,0,0.5-0.2,0.5-0.5V38.6z"/>
		</g>
	</g>
</g>
</svg>
