<?xml version="1.0" encoding="utf-8"?>
<!-- Generated by IcoMoon.io -->
<!DOCTYPE svg PUBLIC "-//W3C//DTD SVG 1.1//EN" "http://www.w3.org/Graphics/SVG/1.1/DTD/svg11.dtd">
<svg version="1.1" xmlns="http://www.w3.org/2000/svg" xmlns:xlink="http://www.w3.org/1999/xlink" width="32" height="32" viewBox="0 0 32 32">
<g id="icomoon-ignore">
	<line stroke-width="1" x1="" y1="" x2="" y2="" stroke="#449FDB" opacity=""></line>
</g>
	<path d="M29.91 4.216c-0.549 0.194-27.714 9.765-28.248 9.954-0.454 0.16-0.557 0.552-0.016 0.766 0.642 0.258 6.074 2.434 6.074 2.434h-0.002l3.602 1.443c0 0 17.339-12.734 17.574-12.906 0.235-0.173 0.509 0.152 0.338 0.338-0.171 0.187-12.594 13.622-12.594 13.622-0.002 0-0.002 0-0.002 0l-0.723 0.806 0.958 0.515c0 0 7.44 4.005 7.97 4.291 0.464 0.25 1.069 0.042 1.203-0.536 0.158-0.682 4.552-19.619 4.65-20.038 0.128-0.549-0.234-0.883-0.784-0.69zM11.288 27.459c0 0.395 0.222 0.504 0.53 0.226 0.4-0.365 4.558-4.096 4.558-4.096l-5.088-2.634v6.504z" fill="#232327"></path>
</svg>
